<?xml version="1.0" encoding="UTF-8"?>
<!--Generator: Apple Native CoreSVG 149-->
<!DOCTYPE svg
PUBLIC "-//W3C//DTD SVG 1.1//EN"
       "http://www.w3.org/Graphics/SVG/1.1/DTD/svg11.dtd">
<svg version="1.1" xmlns="http://www.w3.org/2000/svg" xmlns:xlink="http://www.w3.org/1999/xlink" width="3300" height="2200">
 <!--glyph: "uni1006ED.medium", point size: 100.000000, font version: "Version 16.0d18e1", template writer version: "8"-->
 <g id="Notes">
  <rect height="2200" id="artboard" style="fill:white;opacity:1" width="3300" x="0" y="0"/>
  <line id="" style="fill:none;stroke:black;opacity:1;stroke-width:0.5;" x1="263" x2="3036" y1="292" y2="292"/>
  <text style="stroke:none;fill:black;font-family:-apple-system,&quot;SF Pro Display&quot;,&quot;SF Pro Text&quot;,Helvetica,sans-serif;font-weight:bold;" transform="matrix(1 0 0 1 263 322)">Weight/Scale Variations</text>
  <text style="stroke:none;fill:black;font-family:-apple-system,&quot;SF Pro Display&quot;,&quot;SF Pro Text&quot;,Helvetica,sans-serif;text-anchor:middle;" transform="matrix(1 0 0 1 559.711 322)">Ultralight</text>
  <text style="stroke:none;fill:black;font-family:-apple-system,&quot;SF Pro Display&quot;,&quot;SF Pro Text&quot;,Helvetica,sans-serif;text-anchor:middle;" transform="matrix(1 0 0 1 856.422 322)">Thin</text>
  <text style="stroke:none;fill:black;font-family:-apple-system,&quot;SF Pro Display&quot;,&quot;SF Pro Text&quot;,Helvetica,sans-serif;text-anchor:middle;" transform="matrix(1 0 0 1 1153.13 322)">Light</text>
  <text style="stroke:none;fill:black;font-family:-apple-system,&quot;SF Pro Display&quot;,&quot;SF Pro Text&quot;,Helvetica,sans-serif;text-anchor:middle;" transform="matrix(1 0 0 1 1449.84 322)">Regular</text>
  <text style="stroke:none;fill:black;font-family:-apple-system,&quot;SF Pro Display&quot;,&quot;SF Pro Text&quot;,Helvetica,sans-serif;text-anchor:middle;" transform="matrix(1 0 0 1 1746.56 322)">Medium</text>
  <text style="stroke:none;fill:black;font-family:-apple-system,&quot;SF Pro Display&quot;,&quot;SF Pro Text&quot;,Helvetica,sans-serif;text-anchor:middle;" transform="matrix(1 0 0 1 2043.27 322)">Semibold</text>
  <text style="stroke:none;fill:black;font-family:-apple-system,&quot;SF Pro Display&quot;,&quot;SF Pro Text&quot;,Helvetica,sans-serif;text-anchor:middle;" transform="matrix(1 0 0 1 2339.98 322)">Bold</text>
  <text style="stroke:none;fill:black;font-family:-apple-system,&quot;SF Pro Display&quot;,&quot;SF Pro Text&quot;,Helvetica,sans-serif;text-anchor:middle;" transform="matrix(1 0 0 1 2636.69 322)">Heavy</text>
  <text style="stroke:none;fill:black;font-family:-apple-system,&quot;SF Pro Display&quot;,&quot;SF Pro Text&quot;,Helvetica,sans-serif;text-anchor:middle;" transform="matrix(1 0 0 1 2933.4 322)">Black</text>
  <line id="" style="fill:none;stroke:black;opacity:1;stroke-width:0.5;" x1="263" x2="3036" y1="1903" y2="1903"/>
  <g id="" transform="matrix(1 0 0 1 263 1933)">
   <path d="M9.24805 0.830078C13.5547 0.830078 17.1387-2.74414 17.1387-7.05078C17.1387-11.3574 13.5449-14.9316 9.23828-14.9316C4.94141-14.9316 1.36719-11.3574 1.36719-7.05078C1.36719-2.74414 4.95117 0.830078 9.24805 0.830078ZM9.24805-0.654297C5.70312-0.654297 2.87109-3.49609 2.87109-7.05078C2.87109-10.6055 5.69336-13.4473 9.23828-13.4473C12.793-13.4473 15.6348-10.6055 15.6445-7.05078C15.6543-3.49609 12.8027-0.654297 9.24805-0.654297ZM6.39648-6.31836L8.50586-6.31836L8.50586-4.19922C8.50586-3.75977 8.79883-3.45703 9.22852-3.45703C9.67773-3.45703 9.9707-3.75977 9.9707-4.19922L9.9707-6.31836L12.0996-6.31836C12.5391-6.31836 12.8418-6.61133 12.8418-7.04102C12.8418-7.48047 12.5391-7.7832 12.0996-7.7832L9.9707-7.7832L9.9707-9.89258C9.9707-10.3418 9.67773-10.6445 9.22852-10.6445C8.79883-10.6445 8.50586-10.3418 8.50586-9.89258L8.50586-7.7832L6.39648-7.7832C5.94727-7.7832 5.64453-7.48047 5.64453-7.04102C5.64453-6.61133 5.94727-6.31836 6.39648-6.31836Z"/>
  </g>
  <g id="" transform="matrix(1 0 0 1 281.506 1933)">
   <path d="M11.709 2.91016C17.1582 2.91016 21.6699-1.61133 21.6699-7.05078C21.6699-12.5 17.1484-17.0117 11.6992-17.0117C6.25977-17.0117 1.74805-12.5 1.74805-7.05078C1.74805-1.61133 6.26953 2.91016 11.709 2.91016ZM11.709 1.25C7.09961 1.25 3.41797-2.44141 3.41797-7.05078C3.41797-11.6602 7.08984-15.3516 11.6992-15.3516C16.3086-15.3516 20-11.6602 20.0098-7.05078C20.0195-2.44141 16.3184 1.25 11.709 1.25ZM7.98828-6.23047L10.8789-6.23047L10.8789-3.32031C10.8789-2.83203 11.2109-2.5 11.6895-2.5C12.1777-2.5 12.5195-2.83203 12.5195-3.32031L12.5195-6.23047L15.4297-6.23047C15.918-6.23047 16.25-6.5625 16.25-7.04102C16.25-7.5293 15.918-7.87109 15.4297-7.87109L12.5195-7.87109L12.5195-10.7617C12.5195-11.2695 12.1777-11.6016 11.6895-11.6016C11.2109-11.6016 10.8789-11.2598 10.8789-10.7617L10.8789-7.87109L7.98828-7.87109C7.48047-7.87109 7.14844-7.5293 7.14844-7.04102C7.14844-6.5625 7.49023-6.23047 7.98828-6.23047Z"/>
  </g>
  <g id="" transform="matrix(1 0 0 1 304.924 1933)">
   <path d="M14.9707 5.66406C21.9336 5.66406 27.6953-0.0976562 27.6953-7.05078C27.6953-14.0137 21.9238-19.7754 14.9609-19.7754C8.00781-19.7754 2.25586-14.0137 2.25586-7.05078C2.25586-0.0976562 8.01758 5.66406 14.9707 5.66406ZM14.9707 3.84766C8.93555 3.84766 4.08203-1.01562 4.08203-7.05078C4.08203-13.0957 8.92578-17.9492 14.9609-17.9492C21.0059-17.9492 25.8594-13.0957 25.8691-7.05078C25.8789-1.01562 21.0156 3.84766 14.9707 3.84766ZM10.0586-6.14258L14.0625-6.14258L14.0625-2.12891C14.0625-1.5918 14.4336-1.2207 14.9512-1.2207C15.4883-1.2207 15.8594-1.5918 15.8594-2.12891L15.8594-6.14258L19.8828-6.14258C20.4102-6.14258 20.791-6.51367 20.791-7.03125C20.791-7.56836 20.4199-7.94922 19.8828-7.94922L15.8594-7.94922L15.8594-11.9531C15.8594-12.5098 15.4883-12.8809 14.9512-12.8809C14.4336-12.8809 14.0625-12.5 14.0625-11.9531L14.0625-7.94922L10.0586-7.94922C9.50195-7.94922 9.13086-7.56836 9.13086-7.03125C9.13086-6.51367 9.51172-6.14258 10.0586-6.14258Z"/>
  </g>
  <text style="stroke:none;fill:black;font-family:-apple-system,&quot;SF Pro Display&quot;,&quot;SF Pro Text&quot;,Helvetica,sans-serif;font-weight:bold;" transform="matrix(1 0 0 1 263 1953)">Design Variations</text>
  <text style="stroke:none;fill:black;font-family:-apple-system,&quot;SF Pro Display&quot;,&quot;SF Pro Text&quot;,Helvetica,sans-serif;" transform="matrix(1 0 0 1 263 1971)">Symbols are supported in up to nine weights and three scales.</text>
  <text style="stroke:none;fill:black;font-family:-apple-system,&quot;SF Pro Display&quot;,&quot;SF Pro Text&quot;,Helvetica,sans-serif;" transform="matrix(1 0 0 1 263 1989)">For optimal layout with text and other symbols, vertically align</text>
  <text style="stroke:none;fill:black;font-family:-apple-system,&quot;SF Pro Display&quot;,&quot;SF Pro Text&quot;,Helvetica,sans-serif;" transform="matrix(1 0 0 1 263 2007)">symbols with the adjacent text.</text>
  <line id="" style="fill:none;stroke:#00AEEF;stroke-width:0.5;opacity:1.0;" x1="776" x2="776" y1="1919" y2="1933"/>
  <g id="" transform="matrix(1 0 0 1 776 1933)">
   <path d="M3.31055 0.126953C3.82812 0.126953 4.08203-0.0683594 4.26758-0.605469L5.52734-4.0625L11.2891-4.0625L12.5488-0.605469C12.7344-0.0683594 12.9883 0.126953 13.4961 0.126953C14.0137 0.126953 14.3457-0.185547 14.3457-0.673828C14.3457-0.839844 14.3164-0.986328 14.2383-1.20117L9.6582-13.3887C9.43359-13.9941 9.0332-14.2871 8.4082-14.2871C7.80273-14.2871 7.39258-13.9941 7.17773-13.3984L2.59766-1.19141C2.51953-0.976562 2.49023-0.830078 2.49023-0.664062C2.49023-0.175781 2.80273 0.126953 3.31055 0.126953ZM6.00586-5.53711L8.37891-12.1094L8.42773-12.1094L10.8008-5.53711Z"/>
  </g>
  <line id="" style="fill:none;stroke:#00AEEF;stroke-width:0.5;opacity:1.0;" x1="792.836" x2="792.836" y1="1919" y2="1933"/>
  <text style="stroke:none;fill:black;font-family:-apple-system,&quot;SF Pro Display&quot;,&quot;SF Pro Text&quot;,Helvetica,sans-serif;font-weight:bold;" transform="matrix(1 0 0 1 776 1953)">Margins</text>
  <text style="stroke:none;fill:black;font-family:-apple-system,&quot;SF Pro Display&quot;,&quot;SF Pro Text&quot;,Helvetica,sans-serif;" transform="matrix(1 0 0 1 776 1971)">Leading and trailing margins on the left and right side of each symbol</text>
  <text style="stroke:none;fill:black;font-family:-apple-system,&quot;SF Pro Display&quot;,&quot;SF Pro Text&quot;,Helvetica,sans-serif;" transform="matrix(1 0 0 1 776 1989)">can be adjusted by modifying the x-location of the margin guidelines.</text>
  <text style="stroke:none;fill:black;font-family:-apple-system,&quot;SF Pro Display&quot;,&quot;SF Pro Text&quot;,Helvetica,sans-serif;" transform="matrix(1 0 0 1 776 2007)">Modifications are automatically applied proportionally to all</text>
  <text style="stroke:none;fill:black;font-family:-apple-system,&quot;SF Pro Display&quot;,&quot;SF Pro Text&quot;,Helvetica,sans-serif;" transform="matrix(1 0 0 1 776 2025)">scales and weights.</text>
  <g id="" transform="matrix(1 0 0 1 1289 1933)">
   <path d="M2.8418 1.86523L4.54102 3.57422C5.40039 4.44336 6.38672 4.38477 7.31445 3.35938L17.4902-7.85156C17.7539-7.76367 18.0273-7.7832 18.3398-7.8418L19.4043-8.03711L20.0684-7.36328L20.0293-6.80664C19.9902-6.30859 20.1172-5.92773 20.6055-5.44922L21.3672-4.70703C21.8457-4.22852 22.4609-4.19922 22.9297-4.66797L25.8398-7.58789C26.3086-8.05664 26.2891-8.65234 25.8105-9.13086L25.0391-9.89258C24.5605-10.3711 24.1895-10.5273 23.7109-10.4883L23.1348-10.4395L22.4902-11.0742L22.7344-12.1973C22.8613-12.7637 22.7051-13.2031 22.1191-13.7891L19.9219-15.9766C16.582-19.2969 12.1484-19.2188 9.25781-16.3281C8.83789-15.918 8.80859-15.3418 9.04297-14.9512C9.27734-14.5898 9.73633-14.3555 10.3809-14.5215C11.8457-14.8633 13.3691-14.9219 14.7949-13.9844L14.209-12.5293C14.0137-12.0508 13.9844-11.6504 14.1113-11.2891L3.04688-0.898438C2.06055 0.0195312 1.98242 0.996094 2.8418 1.86523ZM10.752-15.957C13.1836-17.7344 16.4746-17.4316 18.7012-15.2051L21.1328-12.793C21.3672-12.5586 21.4062-12.373 21.3379-12.0312L21.0156-10.5469L22.5195-9.0625L23.5059-9.12109C23.7598-9.13086 23.8379-9.11133 24.0332-8.91602L24.6094-8.33984L22.168-5.89844L21.5918-6.47461C21.3965-6.66992 21.3672-6.74805 21.377-7.01172L21.4453-7.98828L19.9512-9.47266L18.4277-9.21875C18.1055-9.15039 17.959-9.17969 17.7148-9.41406L15.7129-11.416C15.459-11.6504 15.4297-11.8164 15.5859-12.1875L16.4648-14.2773C14.9023-15.7324 12.8711-16.3574 10.8398-15.7617C10.6836-15.7227 10.625-15.8496 10.752-15.957ZM5.27344 2.30469L4.10156 1.14258C3.63281 0.683594 3.74023 0.341797 4.14062-0.0195312L14.9512-10.1953L16.416-8.71094L6.42578 2.27539C6.07422 2.67578 5.74219 2.77344 5.27344 2.30469Z"/>
  </g>
  <text style="stroke:none;fill:black;font-family:-apple-system,&quot;SF Pro Display&quot;,&quot;SF Pro Text&quot;,Helvetica,sans-serif;font-weight:bold;" transform="matrix(1 0 0 1 1289 1953)">Exporting</text>
  <text style="stroke:none;fill:black;font-family:-apple-system,&quot;SF Pro Display&quot;,&quot;SF Pro Text&quot;,Helvetica,sans-serif;" transform="matrix(1 0 0 1 1289 1971)">Symbols should be outlined when exporting to ensure the</text>
  <text style="stroke:none;fill:black;font-family:-apple-system,&quot;SF Pro Display&quot;,&quot;SF Pro Text&quot;,Helvetica,sans-serif;" transform="matrix(1 0 0 1 1289 1989)">design is preserved when submitting to Xcode.</text>
  <text id="template-version" style="stroke:none;fill:black;font-family:-apple-system,&quot;SF Pro Display&quot;,&quot;SF Pro Text&quot;,Helvetica,sans-serif;text-anchor:end;" transform="matrix(1 0 0 1 3036 1933)">Template v.2.0</text>
  <text style="stroke:none;fill:black;font-family:-apple-system,&quot;SF Pro Display&quot;,&quot;SF Pro Text&quot;,Helvetica,sans-serif;text-anchor:end;" transform="matrix(1 0 0 1 3036 1951)">Requires Xcode 12 or greater</text>
  <text style="stroke:none;fill:black;font-family:-apple-system,&quot;SF Pro Display&quot;,&quot;SF Pro Text&quot;,Helvetica,sans-serif;text-anchor:end;" transform="matrix(1 0 0 1 3036 1969)">Generated from lightbulb</text>
  <text style="stroke:none;fill:black;font-family:-apple-system,&quot;SF Pro Display&quot;,&quot;SF Pro Text&quot;,Helvetica,sans-serif;text-anchor:end;" transform="matrix(1 0 0 1 3036 1987)">Typeset at 100 points</text>
  <text style="stroke:none;fill:black;font-family:-apple-system,&quot;SF Pro Display&quot;,&quot;SF Pro Text&quot;,Helvetica,sans-serif;" transform="matrix(1 0 0 1 263 726)">Small</text>
  <text style="stroke:none;fill:black;font-family:-apple-system,&quot;SF Pro Display&quot;,&quot;SF Pro Text&quot;,Helvetica,sans-serif;" transform="matrix(1 0 0 1 263 1156)">Medium</text>
  <text style="stroke:none;fill:black;font-family:-apple-system,&quot;SF Pro Display&quot;,&quot;SF Pro Text&quot;,Helvetica,sans-serif;" transform="matrix(1 0 0 1 263 1586)">Large</text>
 </g>
 <g id="Guides">
  <g id="H-reference" style="fill:#27AAE1;stroke:none;" transform="matrix(1 0 0 1 339 696)">
   <path d="M0.976562 0L3.66211 0L12.9883-24.4629L45.752-24.4629L55.127 0L57.7637 0L30.6152-70.459L28.125-70.459ZM29.3457-67.1387L29.4434-67.1387L44.873-26.709L13.8672-26.709Z"/>
  </g>
  <line id="Baseline-S" style="fill:none;stroke:#27AAE1;opacity:1;stroke-width:0.5;" x1="263" x2="3036" y1="696" y2="696"/>
  <line id="Capline-S" style="fill:none;stroke:#27AAE1;opacity:1;stroke-width:0.5;" x1="263" x2="3036" y1="625.541" y2="625.541"/>
  <g id="H-reference" style="fill:#27AAE1;stroke:none;" transform="matrix(1 0 0 1 339 1126)">
   <path d="M0.976562 0L3.66211 0L12.9883-24.4629L45.752-24.4629L55.127 0L57.7637 0L30.6152-70.459L28.125-70.459ZM29.3457-67.1387L29.4434-67.1387L44.873-26.709L13.8672-26.709Z"/>
  </g>
  <line id="Baseline-M" style="fill:none;stroke:#27AAE1;opacity:1;stroke-width:0.5;" x1="263" x2="3036" y1="1126" y2="1126"/>
  <line id="Capline-M" style="fill:none;stroke:#27AAE1;opacity:1;stroke-width:0.5;" x1="263" x2="3036" y1="1055.54" y2="1055.54"/>
  <g id="H-reference" style="fill:#27AAE1;stroke:none;" transform="matrix(1 0 0 1 339 1556)">
   <path d="M0.976562 0L3.66211 0L12.9883-24.4629L45.752-24.4629L55.127 0L57.7637 0L30.6152-70.459L28.125-70.459ZM29.3457-67.1387L29.4434-67.1387L44.873-26.709L13.8672-26.709Z"/>
  </g>
  <line id="Baseline-L" style="fill:none;stroke:#27AAE1;opacity:1;stroke-width:0.5;" x1="263" x2="3036" y1="1556" y2="1556"/>
  <line id="Capline-L" style="fill:none;stroke:#27AAE1;opacity:1;stroke-width:0.5;" x1="263" x2="3036" y1="1485.54" y2="1485.54"/>
  <line id="left-margin" style="fill:none;stroke:#00AEEF;stroke-width:0.5;opacity:1.0;" x1="1393.86" x2="1393.86" y1="1030.79" y2="1150.12"/>
  <line id="right-margin" style="fill:none;stroke:#00AEEF;stroke-width:0.5;opacity:1.0;" x1="1505.83" x2="1505.83" y1="1030.79" y2="1150.12"/>
 </g>
 <g id="Symbols">
  <g id="Black-L" transform="matrix(1 0 0 1 2856.03 1556)">
   <path d="M52.4414 6.39648L102.295 6.39648C106.201 6.39648 108.984 3.66211 108.984-0.195312L108.984-8.64258C108.984-23.6816 131.787-32.666 131.787-62.207C131.787-94.0918 109.668-115.918 77.3438-115.918C45.0684-115.918 22.9492-94.0918 22.9492-62.207C22.9492-32.666 45.752-23.6816 45.752-8.64258L45.752-0.195312C45.752 3.66211 48.4863 6.39648 52.4414 6.39648ZM61.9629-9.81445C61.9629-30.8594 39.3555-39.1602 39.3555-62.207C39.3555-84.6191 54.4922-99.4629 77.3438-99.4629C100.244-99.4629 115.381-84.6191 115.381-62.207C115.381-39.1602 92.7734-30.8594 92.7734-9.81445L92.7734-9.17969L61.9629-9.17969ZM52.6855 26.0742L102.051 26.0742C106.152 26.0742 109.473 22.6074 109.473 18.7012C109.473 14.7949 106.152 11.3281 102.051 11.3281L52.6855 11.3281C48.584 11.3281 45.2637 14.7949 45.2637 18.7012C45.2637 22.6074 48.584 26.0742 52.6855 26.0742ZM77.3438 43.75C88.3301 43.75 96.1426 38.6719 96.9238 31.0059L57.8125 31.0059C58.5449 38.6719 66.2598 43.75 77.3438 43.75Z"/>
  </g>
  <g id="Heavy-L" transform="matrix(1 0 0 1 2560.74 1556)">
   <path d="M51.709 5.46875L100.244 5.46875C103.662 5.46875 106.104 3.07617 106.104-0.292969L106.104-9.0332C106.104-24.2676 128.809-33.3496 128.809-62.5C128.809-93.5547 107.422-114.697 75.9766-114.697C44.4824-114.697 23.0957-93.5547 23.0957-62.5C23.0957-33.3496 45.8496-24.2676 45.8496-9.0332L45.8496-0.292969C45.8496 3.07617 48.2422 5.46875 51.709 5.46875ZM60.1562-9.91211C60.1562-30.3711 37.5488-39.1113 37.5488-62.5C37.5488-85.1562 52.8809-100.195 75.9766-100.195C99.0723-100.195 114.355-85.1562 114.355-62.5C114.355-39.1113 91.7969-30.3711 91.7969-9.91211L91.7969-8.39844L60.1562-8.39844ZM52.4414 24.2676L99.5117 24.2676C103.369 24.2676 106.445 21.0449 106.445 17.334C106.445 13.6719 103.369 10.4004 99.5117 10.4004L52.4414 10.4004C48.584 10.4004 45.5078 13.6719 45.5078 17.334C45.5078 21.0449 48.584 24.2676 52.4414 24.2676ZM75.9766 41.3086C86.3281 41.3086 93.75 36.4746 94.4824 29.248L57.4219 29.248C58.1055 36.4746 65.4785 41.3086 75.9766 41.3086Z"/>
  </g>
  <g id="Bold-L" transform="matrix(1 0 0 1 2265.59 1556)">
   <path d="M50.8301 4.39453L97.9492 4.39453C100.83 4.39453 102.832 2.44141 102.832-0.439453L102.832-9.47266C102.832-24.9023 125.488-34.1309 125.488-62.793C125.488-92.9199 104.883-113.33 74.4141-113.33C43.8965-113.33 23.291-92.9199 23.291-62.793C23.291-34.1309 45.9473-24.9023 45.9473-9.47266L45.9473-0.439453C45.9473 2.44141 47.9492 4.39453 50.8301 4.39453ZM58.1055-9.96094C58.1055-29.7852 35.5469-39.0137 35.5469-62.793C35.5469-85.791 51.0742-101.025 74.4141-101.025C97.7051-101.025 113.232-85.791 113.232-62.793C113.232-39.0137 90.6738-29.7852 90.6738-9.96094L90.6738-7.4707L58.1055-7.4707ZM52.1484 22.2656L96.6309 22.2656C100.195 22.2656 103.076 19.2871 103.076 15.8203C103.076 12.3535 100.195 9.375 96.6309 9.375L52.1484 9.375C48.584 9.375 45.752 12.3535 45.752 15.8203C45.752 19.2871 48.584 22.2656 52.1484 22.2656ZM74.4141 38.623C84.1309 38.623 91.0645 34.082 91.7969 27.2461L57.0312 27.2461C57.666 34.082 64.5508 38.623 74.4141 38.623Z"/>
  </g>
  <g id="Semibold-L" transform="matrix(1 0 0 1 1969.95 1556)">
   <path d="M50.2441 3.66211L96.3867 3.66211C98.877 3.66211 100.586 1.95312 100.586-0.537109L100.586-9.76562C100.586-25.3418 123.193-34.668 123.193-63.0371C123.193-92.5293 103.125-112.354 73.291-112.354C43.457-112.354 23.4375-92.5293 23.4375-63.0371C23.4375-34.668 46.0449-25.3418 46.0449-9.76562L46.0449-0.537109C46.0449 1.95312 47.7539 3.66211 50.2441 3.66211ZM56.7383-10.0098C56.7383-29.3457 34.1797-38.916 34.1797-62.9883C34.1797-86.1816 49.8047-101.562 73.291-101.562C96.8262-101.562 112.451-86.1816 112.451-62.9883C112.451-38.916 89.8926-29.3457 89.8926-10.0098L89.8926-6.88477L56.7383-6.88477ZM51.9531 20.8496L94.6777 20.8496C98.0469 20.8496 100.732 18.1152 100.732 14.7949C100.732 11.4258 98.0469 8.69141 94.6777 8.69141L51.9531 8.69141C48.584 8.69141 45.8984 11.4258 45.8984 14.7949C45.8984 18.1152 48.584 20.8496 51.9531 20.8496ZM73.291 36.7188C82.6172 36.7188 89.2578 32.4219 89.8926 25.8789L56.7383 25.8789C57.3242 32.4219 63.916 36.7188 73.291 36.7188Z"/>
  </g>
  <g id="Medium-L" transform="matrix(1 0 0 1 1674.07 1556)">
   <path d="M49.8047 3.07617L95.2148 3.07617C97.4121 3.07617 98.877 1.61133 98.877-0.585938L98.877-10.0098C98.877-25.6836 121.484-35.1074 121.484-63.1836C121.484-92.1875 101.807-111.621 72.5098-111.621C43.1641-111.621 23.4863-92.1875 23.4863-63.1836C23.4863-35.1074 46.1426-25.6836 46.1426-10.0098L46.1426-0.585938C46.1426 1.61133 47.6074 3.07617 49.8047 3.07617ZM55.6641-10.0586C55.6641-29.0527 33.1543-38.8672 33.1543-63.1348C33.1543-86.4746 48.877-102.002 72.5098-102.002C96.0938-102.002 111.816-86.4746 111.816-63.1348C111.816-38.8672 89.3555-29.0527 89.3555-10.0586L89.3555-6.39648L55.6641-6.39648ZM51.8066 19.8242L93.1641 19.8242C96.3867 19.8242 98.9258 17.1875 98.9258 13.9648C98.9258 10.7422 96.3867 8.1543 93.1641 8.1543L51.8066 8.1543C48.584 8.1543 46.0449 10.7422 46.0449 13.9648C46.0449 17.1875 48.584 19.8242 51.8066 19.8242ZM72.5098 35.3027C81.4453 35.3027 87.8418 31.1523 88.4766 24.8535L56.4941 24.8535C57.0801 31.1523 63.4277 35.3027 72.5098 35.3027Z"/>
  </g>
  <g id="Regular-L" transform="matrix(1 0 0 1 1378.43 1556)">
   <path d="M49.1699 2.34375L93.6523 2.34375C95.459 2.34375 96.6309 1.17188 96.6309-0.683594L96.6309-10.3027C96.6309-26.0742 119.189-35.6445 119.189-63.3789C119.189-91.7969 100.098-110.693 71.4355-110.693C42.7246-110.693 23.6328-91.7969 23.6328-63.3789C23.6328-35.6445 46.1914-26.0742 46.1914-10.3027L46.1914-0.683594C46.1914 1.17188 47.3633 2.34375 49.1699 2.34375ZM54.248-10.1074C54.248-28.6621 31.7871-38.8184 31.7871-63.3789C31.7871-86.9141 47.6562-102.539 71.4355-102.539C95.2148-102.539 111.035-86.9141 111.035-63.3789C111.035-38.8184 88.5742-28.6621 88.5742-10.1074L88.5742-5.81055L54.248-5.81055ZM51.6113 18.457L91.2109 18.457C94.2383 18.457 96.6309 16.0156 96.6309 12.9395C96.6309 9.86328 94.2383 7.42188 91.2109 7.42188L51.6113 7.42188C48.584 7.42188 46.1914 9.86328 46.1914 12.9395C46.1914 16.0156 48.584 18.457 51.6113 18.457ZM71.4355 33.4473C79.9805 33.4473 86.0352 29.4922 86.6211 23.5352L56.2012 23.5352C56.7383 29.4922 62.793 33.4473 71.4355 33.4473Z"/>
  </g>
  <g id="Light-L" transform="matrix(1 0 0 1 1082.87 1556)">
   <path d="M48.8281 2.58789L91.6992 2.58789C93.1152 2.58789 94.043 1.66016 94.043 0.0976562L94.043-8.83789C94.043-25.3906 117.188-34.5703 117.188-63.0371C117.188-91.0156 98.4375-109.668 70.2637-109.668C42.0898-109.668 23.3398-91.0156 23.3398-63.0371C23.3398-34.5703 46.5332-25.3906 46.5332-8.83789L46.5332 0.0976562C46.5332 1.66016 47.4121 2.58789 48.8281 2.58789ZM52.7832-8.49609C52.7832-27.1484 29.6387-37.5977 29.6387-62.9883C29.6387-87.207 45.8984-103.32 70.2637-103.32C94.6777-103.32 110.889-87.207 110.889-62.9883C110.889-37.5977 87.793-27.1484 87.793-8.49609L87.793-3.71094L52.7832-3.71094ZM51.3672 17.4805L89.1602 17.4805C91.9434 17.4805 94.043 15.332 94.043 12.5488C94.043 9.7168 91.9434 7.56836 89.1602 7.56836L51.3672 7.56836C48.6328 7.56836 46.5332 9.7168 46.5332 12.5488C46.5332 15.332 48.6328 17.4805 51.3672 17.4805ZM70.2637 32.1777C78.6133 32.1777 84.5703 28.3203 85.1562 22.4609L55.4199 22.4609C55.9082 28.3203 61.8164 32.1777 70.2637 32.1777Z"/>
  </g>
  <g id="Thin-L" transform="matrix(1 0 0 1 787.672 1556)">
   <path d="M48.3398 2.92969L89.1113 2.92969C89.9902 2.92969 90.5762 2.29492 90.5762 1.2207L90.5762-6.93359C90.5762-24.4141 114.551-33.1543 114.551-62.5977C114.551-89.9902 96.2402-108.252 68.75-108.252C41.2109-108.252 22.9492-89.9902 22.9492-62.5977C22.9492-33.1543 46.9238-24.4141 46.9238-6.93359L46.9238 1.2207C46.9238 2.29492 47.5098 2.92969 48.3398 2.92969ZM50.7812-6.39648C50.7812-25.1953 26.8066-36.0352 26.8066-62.5C26.8066-87.6465 43.5547-104.395 68.75-104.395C93.9453-104.395 110.693-87.6465 110.693-62.5C110.693-36.0352 86.7188-25.1953 86.7188-6.39648L86.7188-0.927734L50.7812-0.927734ZM51.0742 16.2109L86.4258 16.2109C88.8672 16.2109 90.5762 14.4043 90.5762 12.0117C90.5762 9.57031 88.8672 7.76367 86.4258 7.76367L51.0742 7.76367C48.6328 7.76367 46.9238 9.57031 46.9238 12.0117C46.9238 14.4043 48.6328 16.2109 51.0742 16.2109ZM68.75 30.4688C76.8555 30.4688 82.6172 26.7578 83.1543 21.0938L54.2969 21.0938C54.7852 26.7578 60.5469 30.4688 68.75 30.4688Z"/>
  </g>
  <g id="Ultralight-L" transform="matrix(1 0 0 1 491.742 1556)">
   <path d="M48.0957 3.07617L87.793 3.07617C88.3789 3.07617 88.8184 2.58789 88.8184 1.75781L88.8184-5.9082C88.8184-23.9258 113.184-32.4219 113.184-62.3535C113.184-89.4531 95.166-107.568 67.9688-107.568C40.7715-107.568 22.7051-89.4531 22.7051-62.3535C22.7051-32.4219 47.1191-23.9258 47.1191-5.9082L47.1191 1.75781C47.1191 2.58789 47.5098 3.07617 48.0957 3.07617ZM49.7559-5.32227C49.7559-24.1699 25.3418-35.2051 25.3418-62.2559C25.3418-87.8906 42.334-104.932 67.9688-104.932C93.5547-104.932 110.596-87.8906 110.596-62.2559C110.596-35.2051 86.1816-24.1699 86.1816-5.32227L86.1816 0.488281L49.7559 0.488281ZM50.8789 15.5762L85.0586 15.5762C87.3047 15.5762 88.8184 13.9648 88.8184 11.7188C88.8184 9.47266 87.3047 7.86133 85.0586 7.86133L50.8789 7.86133C48.6328 7.86133 47.1191 9.47266 47.1191 11.7188C47.1191 13.9648 48.6328 15.5762 50.8789 15.5762ZM67.9688 29.5898C75.9277 29.5898 81.5918 25.9277 82.1777 20.3613L53.7598 20.3613C54.248 25.9277 59.9121 29.5898 67.9688 29.5898Z"/>
  </g>
  <g id="Black-M" transform="matrix(1 0 0 1 2872.15 1126)">
   <path d="M41.5039-1.5625L81.0059-1.5625C84.5215-1.5625 87.0605-4.00391 87.0605-7.4707L87.0605-13.3301C87.0605-25.1465 105.078-31.6895 105.078-55.6152C105.078-81.1523 87.207-98.877 61.2793-98.877C35.3027-98.877 17.4316-81.1523 17.4316-55.6152C17.4316-31.6895 35.498-25.1465 35.498-13.3301L35.498-7.4707C35.498-4.00391 37.9883-1.5625 41.5039-1.5625ZM31.7871-55.6152C31.7871-72.998 43.5059-84.4727 61.2793-84.4727C79.0039-84.4727 90.7227-72.998 90.7227-55.6152C90.7227-37.8906 73.0957-31.8359 72.8027-14.9902L49.707-14.9902C49.4141-31.8359 31.7871-37.9395 31.7871-55.6152ZM41.0156 14.209L81.4941 14.209C84.8633 14.209 87.5488 11.3281 87.5488 8.20312C87.5488 5.07812 84.8633 2.19727 81.4941 2.19727L41.0156 2.19727C37.6465 2.19727 34.9609 5.07812 34.9609 8.20312C34.9609 11.3281 37.6465 14.209 41.0156 14.209ZM61.2793 28.5645C70.4102 28.5645 77.002 24.3164 77.6367 17.9199L44.873 17.9199C45.5078 24.3164 51.9531 28.5645 61.2793 28.5645Z"/>
  </g>
  <g id="Heavy-M" transform="matrix(1 0 0 1 2576.68 1126)">
   <path d="M40.7715-2.63672L79.248-2.63672C82.3242-2.63672 84.5215-4.78516 84.5215-7.8125L84.5215-14.1602C84.5215-25.9277 102.344-32.7637 102.344-56.0059C102.344-80.7617 85.1562-97.8027 60.0098-97.8027C34.8633-97.8027 17.6758-80.7617 17.6758-56.0059C17.6758-32.7637 35.498-25.9277 35.498-14.1602L35.498-7.8125C35.498-4.78516 37.6953-2.63672 40.7715-2.63672ZM48.0957-15.0879C48.0957-31.5918 30.3711-37.9883 30.3711-56.0059C30.3711-73.4863 42.1875-85.0586 60.0098-85.0586C77.832-85.0586 89.6484-73.4863 89.6484-56.0059C89.6484-37.9883 71.9238-31.5918 71.9238-15.0879L71.9238-14.6484L48.0957-14.6484ZM40.8203 12.5L79.1992 12.5C82.373 12.5 84.9121 9.81445 84.9121 6.78711C84.9121 3.80859 82.373 1.12305 79.1992 1.12305L40.8203 1.12305C37.6465 1.12305 35.1074 3.80859 35.1074 6.78711C35.1074 9.81445 37.6465 12.5 40.8203 12.5ZM60.0098 26.2695C68.6035 26.2695 74.7559 22.2656 75.3418 16.2598L44.6777 16.2598C45.2637 22.2656 51.3184 26.2695 60.0098 26.2695Z"/>
  </g>
  <g id="Bold-M" transform="matrix(1 0 0 1 2281.36 1126)">
   <path d="M39.8926-3.90625L77.3438-3.90625C79.8828-3.90625 81.6895-5.66406 81.6895-8.20312L81.6895-15.0391C81.6895-26.8555 99.2676-33.9355 99.2676-56.4453C99.2676-80.3223 82.8613-96.582 58.5938-96.582C34.375-96.582 17.9688-80.3223 17.9688-56.4453C17.9688-33.9355 35.5469-26.8555 35.5469-15.0391L35.5469-8.20312C35.5469-5.66406 37.3535-3.90625 39.8926-3.90625ZM46.2891-15.625C46.2891-31.3965 28.8086-38.2324 28.8086-56.3965C28.8086-74.0234 40.6738-85.6934 58.5938-85.6934C76.5625-85.6934 88.4277-74.0234 88.4277-56.3965C88.4277-38.2324 70.9473-31.3965 70.9473-15.625L70.9473-14.3066L46.2891-14.3066ZM40.5762 10.5469L76.6602 10.5469C79.5898 10.5469 81.9336 8.10547 81.9336 5.27344C81.9336 2.44141 79.5898-0.0488281 76.6602-0.0488281L40.5762-0.0488281C37.6465-0.0488281 35.3027 2.44141 35.3027 5.27344C35.3027 8.10547 37.6465 10.5469 40.5762 10.5469ZM58.5938 23.6328C66.5527 23.6328 72.2168 19.9707 72.8027 14.4043L44.4336 14.4043C44.9707 19.9707 50.5859 23.6328 58.5938 23.6328Z"/>
  </g>
  <g id="Semibold-M" transform="matrix(1 0 0 1 1985.6 1126)">
   <path d="M39.3066-4.73633L75.9766-4.73633C78.2227-4.73633 79.7363-6.25 79.7363-8.44727L79.7363-15.6738C79.7363-27.4902 97.168-34.7656 97.168-56.7383C97.168-80.0293 81.25-95.752 57.666-95.752C34.0332-95.752 18.1152-80.0293 18.1152-56.7383C18.1152-34.7656 35.5469-27.4902 35.5469-15.6738L35.5469-8.44727C35.5469-6.25 37.1094-4.73633 39.3066-4.73633ZM45.0684-16.0156C45.0684-31.25 27.7344-38.3789 27.7344-56.7383C27.7344-74.4141 39.6973-86.1328 57.666-86.1328C75.6348-86.1328 87.5977-74.4141 87.5977-56.7383C87.5977-38.3789 70.2637-31.25 70.2637-16.0156L70.2637-14.0625L45.0684-14.0625ZM40.4297 9.22852L74.9023 9.22852C77.6855 9.22852 79.9316 6.93359 79.9316 4.19922C79.9316 1.46484 77.6855-0.830078 74.9023-0.830078L40.4297-0.830078C37.6465-0.830078 35.4004 1.46484 35.4004 4.19922C35.4004 6.93359 37.6465 9.22852 40.4297 9.22852ZM57.666 21.875C65.1367 21.875 70.5078 18.3594 71.0449 13.1348L44.2871 13.1348C44.7754 18.3594 50.0977 21.875 57.666 21.875Z"/>
  </g>
  <g id="Medium-M" transform="matrix(1 0 0 1 1689.62 1126)">
   <path d="M38.8672-5.37109L75-5.37109C76.9531-5.37109 78.2715-6.68945 78.2715-8.64258L78.2715-16.1133C78.2715-27.9297 95.6055-35.3516 95.6055-56.9336C95.6055-79.7852 80.0293-95.1172 56.9336-95.1172C33.7891-95.1172 18.2617-79.7852 18.2617-56.9336C18.2617-35.3516 35.5957-27.9297 35.5957-16.1133L35.5957-8.64258C35.5957-6.68945 36.9141-5.37109 38.8672-5.37109ZM44.0918-16.2598C44.0918-31.1035 26.9043-38.5254 26.9043-56.9336C26.9043-74.707 38.916-86.4746 56.9336-86.4746C74.9512-86.4746 86.9629-74.707 86.9629-56.9336C86.9629-38.5254 69.7266-31.1035 69.7266-16.2598L69.7266-13.8672L44.0918-13.8672ZM40.2832 8.20312L73.584 8.20312C76.2207 8.20312 78.3691 6.05469 78.3691 3.36914C78.3691 0.732422 76.2207-1.46484 73.584-1.46484L40.2832-1.46484C37.6465-1.46484 35.498 0.732422 35.498 3.36914C35.498 6.05469 37.6465 8.20312 40.2832 8.20312ZM56.9336 20.5078C64.0625 20.5078 69.1895 17.1875 69.6777 12.1582L44.1406 12.1582C44.6289 17.1875 49.707 20.5078 56.9336 20.5078Z"/>
  </g>
  <g id="Regular-M" transform="matrix(1 0 0 1 1393.86 1126)">
   <path d="M38.2812-6.25L73.6328-6.25C75.293-6.25 76.3672-7.27539 76.3672-8.93555L76.3672-16.748C76.3672-28.5645 93.5059-36.1816 93.5059-57.2754C93.5059-79.4922 78.4668-94.3359 55.957-94.3359C33.4473-94.3359 18.457-79.4922 18.457-57.2754C18.457-36.1816 35.5957-28.5645 35.5957-16.748L35.5957-8.93555C35.5957-7.27539 36.6699-6.25 38.2812-6.25ZM42.8711-16.6504C42.8711-31.0059 25.8301-38.6719 25.8301-57.2266C25.8301-75.0977 37.8906-86.9629 55.957-86.9629C74.0723-86.9629 86.1328-75.0977 86.1328-57.2266C86.1328-38.6719 69.0918-31.0059 69.0918-16.6504L69.0918-13.623L42.8711-13.623ZM40.1367 6.93359L71.8262 6.93359C74.3164 6.93359 76.3672 4.88281 76.3672 2.34375C76.3672-0.195312 74.3164-2.24609 71.8262-2.24609L40.1367-2.24609C37.6465-2.24609 35.5957-0.195312 35.5957 2.34375C35.5957 4.88281 37.6465 6.93359 40.1367 6.93359ZM55.957 18.7012C62.6953 18.7012 67.4805 15.625 67.9688 10.8887L43.9941 10.8887C44.4336 15.625 49.2188 18.7012 55.957 18.7012Z"/>
  </g>
  <g id="Light-M" transform="matrix(1 0 0 1 1098.18 1126)">
   <path d="M37.9883-6.00586L71.9238-6.00586C73.1934-6.00586 74.0234-6.88477 74.0234-8.20312L74.0234-15.4297C74.0234-27.9297 91.6992-35.2051 91.6992-56.9336C91.6992-78.8086 77.002-93.3594 54.9805-93.3594C32.9102-93.3594 18.2129-78.8086 18.2129-56.9336C18.2129-35.2051 35.8887-27.9297 35.8887-15.4297L35.8887-8.20312C35.8887-6.88477 36.7188-6.00586 37.9883-6.00586ZM41.5527-15.2344C41.5527-29.6387 23.9258-37.5977 23.9258-56.8848C23.9258-75.3906 36.3281-87.6465 54.9805-87.6465C73.584-87.6465 85.9863-75.3906 85.9863-56.8848C85.9863-37.5977 68.3594-29.6387 68.3594-15.2344L68.3594-11.7188L41.5527-11.7188ZM39.8926 6.05469L70.0195 6.05469C72.2656 6.05469 74.0234 4.24805 74.0234 1.95312C74.0234-0.341797 72.2656-2.09961 70.0195-2.09961L39.8926-2.09961C37.6465-2.09961 35.8887-0.341797 35.8887 1.95312C35.8887 4.24805 37.6465 6.05469 39.8926 6.05469ZM54.9805 17.5781C61.5234 17.5781 66.1621 14.5508 66.6504 9.96094L43.2617 9.96094C43.7012 14.5508 48.3398 17.5781 54.9805 17.5781Z"/>
  </g>
  <g id="Thin-M" transform="matrix(1 0 0 1 802.809 1126)">
   <path d="M37.5977-5.71289L69.6289-5.71289C70.4102-5.71289 70.9473-6.29883 70.9473-7.22656L70.9473-13.7207C70.9473-27.0508 89.3555-33.9355 89.3555-56.543C89.3555-77.8809 75.0977-92.1387 53.6133-92.1387C32.1289-92.1387 17.8711-77.8809 17.8711-56.543C17.8711-33.9355 36.2793-27.0508 36.2793-13.7207L36.2793-7.22656C36.2793-6.29883 36.8164-5.71289 37.5977-5.71289ZM39.7949-13.3301C39.7949-27.8809 21.3867-36.1816 21.3867-56.4941C21.3867-75.7812 34.2773-88.623 53.6133-88.623C72.9492-88.623 85.8398-75.7812 85.8398-56.4941C85.8398-36.1816 67.4316-27.8809 67.4316-13.3301L67.4316-9.22852L39.7949-9.22852ZM39.6484 4.93164L67.5781 4.93164C69.5312 4.93164 70.9473 3.4668 70.9473 1.46484C70.9473-0.488281 69.5312-1.95312 67.5781-1.95312L39.6484-1.95312C37.6953-1.95312 36.2793-0.488281 36.2793 1.46484C36.2793 3.4668 37.6953 4.93164 39.6484 4.93164ZM53.6133 16.0645C59.9609 16.0645 64.4531 13.1348 64.8926 8.69141L42.334 8.69141C42.7246 13.1348 47.2168 16.0645 53.6133 16.0645Z"/>
  </g>
  <g id="Ultralight-M" transform="matrix(1 0 0 1 506.781 1126)">
   <path d="M37.3535-5.56641L68.457-5.56641C68.9941-5.56641 69.3848-6.00586 69.3848-6.73828L69.3848-12.793C69.3848-26.6113 88.1348-33.252 88.1348-56.2988C88.1348-77.3926 74.0723-91.5039 52.9297-91.5039C31.7383-91.5039 17.6758-77.3926 17.6758-56.2988C17.6758-33.252 36.4746-26.6113 36.4746-12.793L36.4746-6.73828C36.4746-6.00586 36.8164-5.56641 37.3535-5.56641ZM38.8672-12.3535C38.8672-26.9531 20.0684-35.4492 20.0684-56.25C20.0684-75.9766 33.2031-89.0625 52.9297-89.0625C72.6562-89.0625 85.7422-75.9766 85.7422-56.25C85.7422-35.4492 66.9434-26.9531 66.9434-12.3535L66.9434-8.00781L38.8672-8.00781ZM39.502 4.3457L66.3574 4.3457C68.1152 4.3457 69.3848 3.02734 69.3848 1.2207C69.3848-0.537109 68.1152-1.85547 66.3574-1.85547L39.502-1.85547C37.6953-1.85547 36.4746-0.537109 36.4746 1.2207C36.4746 3.02734 37.6953 4.3457 39.502 4.3457ZM52.9297 15.2832C59.1309 15.2832 63.5742 12.4023 64.0137 8.05664L41.8457 8.05664C42.2363 12.4023 46.6309 15.2832 52.9297 15.2832Z"/>
  </g>
  <g id="Black-S" transform="matrix(1 0 0 1 2885.5 696)">
   <path d="M32.4707-8.93555L63.3301-8.93555C66.0645-8.93555 68.0176-10.8398 68.0176-13.5254L68.0176-18.1641C68.0176-27.3926 82.1289-32.5684 82.1289-51.2207C82.1289-71.1914 68.1641-85.0098 47.9004-85.0098C27.6367-85.0098 13.6719-71.1914 13.6719-51.2207C13.6719-32.5684 27.7832-27.3926 27.7832-18.1641L27.7832-13.5254C27.7832-10.8398 29.7363-8.93555 32.4707-8.93555ZM24.8047-51.2207C24.8047-64.8438 33.9844-73.8281 47.9004-73.8281C61.8164-73.8281 70.9961-64.8438 70.9961-51.2207C70.9961-37.3535 57.1777-32.5684 56.9824-19.3848L38.8184-19.3848C38.8184-32.5195 24.8047-37.2559 24.8047-51.2207ZM32.1289 3.36914L63.6719 3.36914C66.3086 3.36914 68.4082 1.12305 68.4082-1.31836C68.4082-3.75977 66.3086-6.00586 63.6719-6.00586L32.1289-6.00586C29.4922-6.00586 27.3926-3.75977 27.3926-1.31836C27.3926 1.12305 29.4922 3.36914 32.1289 3.36914ZM47.9004 14.5996C55.0293 14.5996 60.1562 11.2793 60.6445 6.29883L35.1562 6.29883C35.6445 11.2793 40.6738 14.5996 47.9004 14.5996Z"/>
  </g>
  <g id="Heavy-S" transform="matrix(1 0 0 1 2589.62 696)">
   <path d="M31.9336-9.81445L62.207-9.81445C64.6484-9.81445 66.3574-11.4746 66.3574-13.8672L66.3574-18.9453C66.3574-28.0762 80.2246-33.4961 80.2246-51.5625C80.2246-70.9473 66.748-84.2773 47.0703-84.2773C27.3926-84.2773 13.8672-70.9473 13.8672-51.5625C13.8672-33.4961 27.7832-28.0762 27.7832-18.9453L27.7832-13.8672C27.7832-11.4746 29.4922-9.81445 31.9336-9.81445ZM37.7441-19.6777C37.7441-32.5195 23.9258-37.5488 23.9258-51.5625C23.9258-65.1855 33.1543-74.2188 47.0703-74.2188C60.9863-74.2188 70.166-65.1855 70.166-51.5625C70.166-37.5488 56.3965-32.5195 56.3965-19.6777L56.3965-19.3359L37.7441-19.3359ZM31.9824 2.14844L62.1582 2.14844C64.6484 2.14844 66.6504 0.0488281 66.6504-2.34375C66.6504-4.6875 64.6484-6.83594 62.1582-6.83594L31.9824-6.83594C29.4922-6.83594 27.4902-4.6875 27.4902-2.34375C27.4902 0.0488281 29.4922 2.14844 31.9824 2.14844ZM47.0703 12.9395C53.7598 12.9395 58.5938 9.81445 59.0332 5.12695L35.0586 5.12695C35.5469 9.81445 40.2832 12.9395 47.0703 12.9395Z"/>
  </g>
  <g id="Bold-S" transform="matrix(1 0 0 1 2293.84 696)">
   <path d="M31.2988-10.791L60.9375-10.791C63.0371-10.791 64.502-12.207 64.502-14.2578L64.502-19.7754C64.502-28.8574 78.125-34.4727 78.125-51.9531C78.125-70.7031 65.1855-83.4961 46.1426-83.4961C27.0996-83.4961 14.1602-70.7031 14.1602-51.9531C14.1602-34.4727 27.7832-28.8574 27.7832-19.7754L27.7832-14.2578C27.7832-12.207 29.248-10.791 31.2988-10.791ZM36.5234-20.2637C36.5234-32.5195 22.998-37.8418 22.998-51.9043C22.998-65.5762 32.2266-74.6094 46.1426-74.6094C60.0586-74.6094 69.2871-65.5762 69.2871-51.9043C69.2871-37.8418 55.7129-32.5195 55.7129-20.2637L55.7129-19.2871L36.5234-19.2871ZM31.8359 0.78125L60.4492 0.78125C62.793 0.78125 64.6973-1.17188 64.6973-3.4668C64.6973-5.76172 62.793-7.71484 60.4492-7.71484L31.8359-7.71484C29.4922-7.71484 27.5879-5.76172 27.5879-3.4668C27.5879-1.17188 29.4922 0.78125 31.8359 0.78125ZM46.1426 11.084C52.3926 11.084 56.8359 8.20312 57.2754 3.80859L35.0098 3.80859C35.4004 8.20312 39.8438 11.084 46.1426 11.084Z"/>
  </g>
  <g id="Semibold-S" transform="matrix(1 0 0 1 1997.78 696)">
   <path d="M30.9082-11.4258L60.0586-11.4258C61.9629-11.4258 63.1836-12.6953 63.1836-14.502L63.1836-20.3613C63.1836-29.3945 76.6602-35.2051 76.6602-52.1973C76.6602-70.5566 64.1113-82.959 45.5078-82.959C26.8555-82.959 14.3066-70.5566 14.3066-52.1973C14.3066-35.2051 27.7832-29.3945 27.7832-20.3613L27.7832-14.502C27.7832-12.6953 29.0527-11.4258 30.9082-11.4258ZM35.6934-20.6543C35.6934-32.5684 22.3145-38.0859 22.3145-52.1973C22.3145-65.8203 31.5918-74.9023 45.5078-74.9023C59.375-74.9023 68.6523-65.8203 68.6523-52.1973C68.6523-38.0859 55.2734-32.5684 55.2734-20.6543L55.2734-19.2383L35.6934-19.2383ZM31.7383-0.146484L59.2285-0.146484C61.4746-0.146484 63.3301-2.05078 63.3301-4.24805C63.3301-6.44531 61.4746-8.34961 59.2285-8.34961L31.7383-8.34961C29.4922-8.34961 27.6367-6.44531 27.6367-4.24805C27.6367-2.05078 29.4922-0.146484 31.7383-0.146484ZM45.5078 9.81445C51.416 9.81445 55.6152 7.08008 56.0547 2.92969L34.9609 2.92969C35.3516 7.08008 39.502 9.81445 45.5078 9.81445Z"/>
  </g>
  <g id="Medium-S" transform="matrix(1 0 0 1 1701.56 696)">
   <path d="M30.5664-11.9629L59.4238-11.9629C61.084-11.9629 62.207-13.0859 62.207-14.6973L62.207-20.8008C62.207-29.7852 75.5859-35.7422 75.5859-52.3926C75.5859-70.4102 63.2812-82.5195 45.0195-82.5195C26.709-82.5195 14.4531-70.4102 14.4531-52.3926C14.4531-35.7422 27.7832-29.7852 27.7832-20.8008L27.7832-14.6973C27.7832-13.0859 28.9062-11.9629 30.5664-11.9629ZM35.0586-20.9473C35.0586-32.5684 21.8262-38.2324 21.8262-52.3926C21.8262-66.0645 31.1035-75.0977 45.0195-75.0977C58.8867-75.0977 68.1641-66.0645 68.1641-52.3926C68.1641-38.2324 54.9316-32.5684 54.9316-20.9473L54.9316-19.2383L35.0586-19.2383ZM31.6406-0.878906L58.3496-0.878906C60.498-0.878906 62.3047-2.68555 62.3047-4.83398C62.3047-7.03125 60.498-8.83789 58.3496-8.83789L31.6406-8.83789C29.4922-8.83789 27.6855-7.03125 27.6855-4.83398C27.6855-2.68555 29.4922-0.878906 31.6406-0.878906ZM45.0195 8.83789C50.6836 8.83789 54.6875 6.20117 55.127 2.24609L34.9121 2.24609C35.2539 6.20117 39.2578 8.83789 45.0195 8.83789Z"/>
  </g>
  <g id="Regular-S" transform="matrix(1 0 0 1 1405.48 696)">
   <path d="M30.1758-12.5977L58.5449-12.5977C60.0098-12.5977 60.9375-13.5742 60.9375-14.9902L60.9375-21.3867C60.9375-30.3223 74.1211-36.4258 74.1211-52.6367C74.1211-70.2637 62.207-81.9824 44.3848-81.9824C26.5137-81.9824 14.5996-70.2637 14.5996-52.6367C14.5996-36.4258 27.7832-30.3223 27.7832-21.3867L27.7832-14.9902C27.7832-13.5742 28.7109-12.5977 30.1758-12.5977ZM34.2773-21.3379C34.2773-32.5684 21.1914-38.4766 21.1914-52.6367C21.1914-66.3086 30.4688-75.3906 44.3848-75.3906C58.252-75.3906 67.5293-66.3086 67.5293-52.6367C67.5293-38.4766 54.4922-32.5684 54.4922-21.3379L54.4922-19.1895L34.2773-19.1895ZM31.543-1.80664L57.1777-1.80664C59.2285-1.80664 60.9375-3.51562 60.9375-5.61523C60.9375-7.71484 59.2285-9.47266 57.1777-9.47266L31.543-9.47266C29.4922-9.47266 27.7832-7.71484 27.7832-5.61523C27.7832-3.51562 29.4922-1.80664 31.543-1.80664ZM44.3848 7.56836C49.707 7.56836 53.5156 5.12695 53.9062 1.36719L34.8633 1.36719C35.1562 5.12695 38.9648 7.56836 44.3848 7.56836Z"/>
  </g>
  <g id="Light-S" transform="matrix(1 0 0 1 1109.68 696)">
   <path d="M29.8828-12.4023L57.0312-12.4023C58.1543-12.4023 58.8867-13.1836 58.8867-14.3066L58.8867-20.2148C58.8867-29.7363 72.5586-35.5957 72.5586-52.3438C72.5586-69.6289 60.9375-81.1523 43.457-81.1523C26.0254-81.1523 14.3555-69.6289 14.3555-52.3438C14.3555-35.5957 28.0273-29.7363 28.0273-20.2148L28.0273-14.3066C28.0273-13.1836 28.7598-12.4023 29.8828-12.4023ZM33.0566-20.1172C33.0566-31.3477 19.4824-37.5 19.4824-52.3438C19.4824-66.5527 29.0527-76.0254 43.457-76.0254C57.8613-76.0254 67.4316-66.5527 67.4316-52.3438C67.4316-37.5 53.8574-31.3477 53.8574-20.1172L53.8574-17.5293L33.0566-17.5293ZM31.3477-2.53906L55.5664-2.53906C57.4219-2.53906 58.8867-4.05273 58.8867-5.95703C58.8867-7.8125 57.4219-9.32617 55.5664-9.32617L31.3477-9.32617C29.4922-9.32617 28.0273-7.8125 28.0273-5.95703C28.0273-4.05273 29.4922-2.53906 31.3477-2.53906ZM43.457 6.5918C48.6816 6.5918 52.3438 4.15039 52.7344 0.537109L34.1797 0.537109C34.5215 4.15039 38.2324 6.5918 43.457 6.5918Z"/>
  </g>
  <g id="Thin-S" transform="matrix(1 0 0 1 814.161 696)">
   <path d="M29.541-12.1582L54.9805-12.1582C55.7129-12.1582 56.1523-12.6953 56.1523-13.4766L56.1523-18.7012C56.1523-29.0039 70.459-34.4727 70.459-52.002C70.459-68.8477 59.1797-80.0293 42.2852-80.0293C25.3418-80.0293 14.0625-68.8477 14.0625-52.002C14.0625-34.4727 28.3691-29.0039 28.3691-18.7012L28.3691-13.4766C28.3691-12.6953 28.8086-12.1582 29.541-12.1582ZM31.4941-18.457C31.4941-29.7852 17.2363-36.2305 17.2363-51.9531C17.2363-66.8945 27.2461-76.8555 42.2852-76.8555C57.2754-76.8555 67.2852-66.8945 67.2852-51.9531C67.2852-36.2305 53.0273-29.7852 53.0273-18.457L53.0273-15.332L31.4941-15.332ZM31.1035-3.56445L53.418-3.56445C54.9805-3.56445 56.1523-4.78516 56.1523-6.34766C56.1523-7.95898 54.9805-9.17969 53.418-9.17969L31.1035-9.17969C29.541-9.17969 28.3691-7.95898 28.3691-6.34766C28.3691-4.78516 29.541-3.56445 31.1035-3.56445ZM42.2852 5.22461C47.2656 5.22461 50.8301 2.92969 51.1719-0.585938L33.3496-0.585938C33.6426 2.92969 37.207 5.22461 42.2852 5.22461Z"/>
  </g>
  <g id="Ultralight-S" transform="matrix(1 0 0 1 518.061 696)">
   <path d="M29.3457-12.0605L53.9551-12.0605C54.4434-12.0605 54.7852-12.4023 54.7852-13.0371L54.7852-17.9199C54.7852-28.6133 69.3848-33.8867 69.3848-51.8066C69.3848-68.4082 58.3008-79.4922 41.6504-79.4922C25-79.4922 13.916-68.4082 13.916-51.8066C13.916-33.8867 28.5645-28.6133 28.5645-17.9199L28.5645-13.0371C28.5645-12.4023 28.8574-12.0605 29.3457-12.0605ZM30.7129-17.5781C30.7129-29.0039 16.1133-35.5957 16.1133-51.7578C16.1133-67.0898 26.3184-77.2949 41.6504-77.2949C57.0312-77.2949 67.2363-67.0898 67.2363-51.7578C67.2363-35.5957 52.5879-29.0039 52.5879-17.5781L52.5879-14.209L30.7129-14.209ZM31.0059-4.10156L52.2949-4.10156C53.7598-4.10156 54.7852-5.12695 54.7852-6.5918C54.7852-8.05664 53.7598-9.08203 52.2949-9.08203L31.0059-9.08203C29.541-9.08203 28.5645-8.05664 28.5645-6.5918C28.5645-5.12695 29.541-4.10156 31.0059-4.10156ZM41.6504 4.54102C46.582 4.54102 50.0488 2.29492 50.3906-1.12305L32.9102-1.12305C33.2031 2.29492 36.7188 4.54102 41.6504 4.54102Z"/>
  </g>
 </g>
</svg>
