<svg width="512" height="512" xmlns="http://www.w3.org/2000/svg">
 <!-- Created with UXWing SVG Editor - https://uxwing.com/svg-icon-editor/ -->

 <g>
  <title>Layer 1</title>
  <g id="svg_58">
   <g transform="matrix(0.4 0 0 0.4 0 0)" id="svg_34">
    <g id="svg_35">
     <circle fill="#00ff80" stroke="#ff3333" id="svg_36" r="42.667" cy="640.000023" cx="469.333473"/>
    </g>
   </g>
   <g transform="matrix(0.4 0 0 0.4 0 0)" id="svg_37">
    <g id="svg_38">
     <circle fill="#00ff80" stroke="#ff3333" id="svg_39" r="42.667" cy="640.000023" cx="639.999473"/>
    </g>
   </g>
   <g transform="matrix(0.4 0 0 0.4 0 0)" id="svg_40">
    <g id="svg_41">
     <circle fill="#ffffff" stroke="#00ff80" id="svg_42" r="42.667" cy="640.000023" cx="810.666473"/>
    </g>
   </g>
   <g transform="matrix(0.4 0 0 0.4 0 0)" id="svg_43"/>
   <g transform="matrix(0.4 0 0 0.4 0 0)" id="svg_44"/>
   <g transform="matrix(0.4 0 0 0.4 0 0)" id="svg_45"/>
   <g transform="matrix(0.4 0 0 0.4 0 0)" id="svg_46"/>
   <g transform="matrix(0.4 0 0 0.4 0 0)" id="svg_47"/>
   <g transform="matrix(0.4 0 0 0.4 0 0)" id="svg_48"/>
   <g transform="matrix(0.4 0 0 0.4 0 0)" id="svg_49"/>
   <g transform="matrix(0.4 0 0 0.4 0 0)" id="svg_50"/>
   <g transform="matrix(0.4 0 0 0.4 0 0)" id="svg_51"/>
   <g transform="matrix(0.4 0 0 0.4 0 0)" id="svg_52"/>
   <g transform="matrix(0.4 0 0 0.4 0 0)" id="svg_53"/>
   <g transform="matrix(0.4 0 0 0.4 0 0)" id="svg_54"/>
   <g transform="matrix(0.4 0 0 0.4 0 0)" id="svg_55"/>
   <g transform="matrix(0.4 0 0 0.4 0 0)" id="svg_56"/>
   <g transform="matrix(0.4 0 0 0.4 0 0)" id="svg_57"/>
  </g>
 </g>
</svg>